<mxfile host="65bd71144e">
    <diagram id="j-mSVz4Y9RyfdG1uPcG9" name="Страница 1">
        <mxGraphModel dx="1363" dy="590" grid="1" gridSize="10" guides="1" tooltips="1" connect="1" arrows="1" fold="1" page="1" pageScale="1" pageWidth="827" pageHeight="1169" math="0" shadow="0">
            <root>
                <mxCell id="0"/>
                <mxCell id="1" parent="0"/>
                <mxCell id="2" value="&lt;h1&gt;Factory Method&lt;/h1&gt;&lt;p&gt;Диаграмма классов паттерна &quot;Фабричный метод&quot;&lt;/p&gt;" style="text;html=1;strokeColor=none;fillColor=none;spacing=5;spacingTop=-20;whiteSpace=wrap;overflow=hidden;rounded=0;" parent="1" vertex="1">
                    <mxGeometry x="40" y="40" width="320" height="80" as="geometry"/>
                </mxCell>
                <mxCell id="3" value="AbstractClassCreator" style="swimlane;fontStyle=0;childLayout=stackLayout;horizontal=1;startSize=26;fillColor=none;horizontalStack=0;resizeParent=1;resizeParentMax=0;resizeLast=0;collapsible=1;marginBottom=0;" parent="1" vertex="1">
                    <mxGeometry x="360" y="510" width="160" height="78" as="geometry"/>
                </mxCell>
                <mxCell id="4" value="+ AnOperation();" style="text;strokeColor=none;fillColor=none;align=left;verticalAlign=top;spacingLeft=4;spacingRight=4;overflow=hidden;rotatable=0;points=[[0,0.5],[1,0.5]];portConstraint=eastwest;" parent="3" vertex="1">
                    <mxGeometry y="26" width="160" height="26" as="geometry"/>
                </mxCell>
                <mxCell id="5" value="# FactoryMethod(): Product" style="text;strokeColor=none;fillColor=none;align=left;verticalAlign=top;spacingLeft=4;spacingRight=4;overflow=hidden;rotatable=0;points=[[0,0.5],[1,0.5]];portConstraint=eastwest;" parent="3" vertex="1">
                    <mxGeometry y="52" width="160" height="26" as="geometry"/>
                </mxCell>
                <mxCell id="7" value="Product" style="swimlane;fontStyle=0;childLayout=stackLayout;horizontal=1;startSize=26;fillColor=none;horizontalStack=0;resizeParent=1;resizeParentMax=0;resizeLast=0;collapsible=1;marginBottom=0;" parent="1" vertex="1">
                    <mxGeometry x="600" y="510" width="160" height="52" as="geometry"/>
                </mxCell>
                <mxCell id="14" value="" style="edgeStyle=none;html=1;endArrow=none;endFill=0;" parent="1" edge="1">
                    <mxGeometry relative="1" as="geometry">
                        <mxPoint x="320" y="549.2677345537758" as="sourcePoint"/>
                        <mxPoint x="360" y="549" as="targetPoint"/>
                    </mxGeometry>
                </mxCell>
                <mxCell id="12" value="Product AnOperation() {&lt;br&gt;&lt;br&gt;...&lt;br&gt;&lt;br&gt;Product product = FactoryMethod();&lt;br&gt;&lt;br&gt;...&lt;br&gt;&lt;br&gt;return product;&lt;br&gt;&lt;br&gt;}" style="shape=note2;boundedLbl=1;whiteSpace=wrap;html=1;size=25;verticalAlign=top;align=center;" parent="1" vertex="1">
                    <mxGeometry x="40" y="460" width="280" height="180" as="geometry"/>
                </mxCell>
                <mxCell id="15" value="Use" style="endArrow=open;endSize=12;dashed=1;html=1;exitX=1;exitY=0.5;exitDx=0;exitDy=0;entryX=0;entryY=0.25;entryDx=0;entryDy=0;" edge="1" parent="1" source="5" target="7">
                    <mxGeometry width="160" relative="1" as="geometry">
                        <mxPoint x="570" y="610" as="sourcePoint"/>
                        <mxPoint x="730" y="610" as="targetPoint"/>
                    </mxGeometry>
                </mxCell>
                <mxCell id="16" value="ConcreteClassCreator" style="swimlane;fontStyle=0;childLayout=stackLayout;horizontal=1;startSize=26;fillColor=none;horizontalStack=0;resizeParent=1;resizeParentMax=0;resizeLast=0;collapsible=1;marginBottom=0;" vertex="1" parent="1">
                    <mxGeometry x="360" y="745" width="160" height="52" as="geometry"/>
                </mxCell>
                <mxCell id="17" value="# FactoryMethod(): Product" style="text;strokeColor=none;fillColor=none;align=left;verticalAlign=top;spacingLeft=4;spacingRight=4;overflow=hidden;rotatable=0;points=[[0,0.5],[1,0.5]];portConstraint=eastwest;" vertex="1" parent="16">
                    <mxGeometry y="26" width="160" height="26" as="geometry"/>
                </mxCell>
                <mxCell id="20" value="ConcreteProduct #1" style="swimlane;fontStyle=0;childLayout=stackLayout;horizontal=1;startSize=26;fillColor=none;horizontalStack=0;resizeParent=1;resizeParentMax=0;resizeLast=0;collapsible=1;marginBottom=0;" vertex="1" parent="1">
                    <mxGeometry x="360" y="320" width="160" height="52" as="geometry"/>
                </mxCell>
                <mxCell id="22" value="ConcreteProduct #2" style="swimlane;fontStyle=0;childLayout=stackLayout;horizontal=1;startSize=26;fillColor=none;horizontalStack=0;resizeParent=1;resizeParentMax=0;resizeLast=0;collapsible=1;marginBottom=0;" vertex="1" parent="1">
                    <mxGeometry x="480" y="200" width="160" height="52" as="geometry"/>
                </mxCell>
                <mxCell id="23" value="ConcreteProduct #3" style="swimlane;fontStyle=0;childLayout=stackLayout;horizontal=1;startSize=26;fillColor=none;horizontalStack=0;resizeParent=1;resizeParentMax=0;resizeLast=0;collapsible=1;marginBottom=0;" vertex="1" parent="1">
                    <mxGeometry x="640" y="320" width="160" height="52" as="geometry"/>
                </mxCell>
                <mxCell id="24" value="Extends" style="endArrow=block;endSize=16;endFill=0;html=1;exitX=1;exitY=0.5;exitDx=0;exitDy=0;entryX=0.25;entryY=0;entryDx=0;entryDy=0;" edge="1" parent="1" source="20" target="7">
                    <mxGeometry width="160" relative="1" as="geometry">
                        <mxPoint x="500" y="480" as="sourcePoint"/>
                        <mxPoint x="540" y="490" as="targetPoint"/>
                    </mxGeometry>
                </mxCell>
                <mxCell id="25" value="Extends" style="endArrow=block;endSize=16;endFill=0;html=1;exitX=0.5;exitY=1;exitDx=0;exitDy=0;entryX=0.5;entryY=0;entryDx=0;entryDy=0;" edge="1" parent="1" source="22" target="7">
                    <mxGeometry width="160" relative="1" as="geometry">
                        <mxPoint x="580" y="670" as="sourcePoint"/>
                        <mxPoint x="740" y="670" as="targetPoint"/>
                    </mxGeometry>
                </mxCell>
                <mxCell id="26" value="Extends" style="endArrow=block;endSize=16;endFill=0;html=1;exitX=0.5;exitY=1;exitDx=0;exitDy=0;entryX=0.75;entryY=0;entryDx=0;entryDy=0;" edge="1" parent="1" source="23" target="7">
                    <mxGeometry width="160" relative="1" as="geometry">
                        <mxPoint x="590" y="680" as="sourcePoint"/>
                        <mxPoint x="750" y="680" as="targetPoint"/>
                    </mxGeometry>
                </mxCell>
                <mxCell id="27" value="Extends" style="endArrow=block;endSize=16;endFill=0;html=1;exitX=0.5;exitY=0;exitDx=0;exitDy=0;entryX=0.5;entryY=1.077;entryDx=0;entryDy=0;entryPerimeter=0;" edge="1" parent="1" source="16" target="5">
                    <mxGeometry width="160" relative="1" as="geometry">
                        <mxPoint x="250" y="890" as="sourcePoint"/>
                        <mxPoint x="410" y="890" as="targetPoint"/>
                    </mxGeometry>
                </mxCell>
                <mxCell id="30" value="" style="edgeStyle=none;html=1;" edge="1" parent="1" target="17">
                    <mxGeometry relative="1" as="geometry">
                        <mxPoint x="320" y="784" as="sourcePoint"/>
                    </mxGeometry>
                </mxCell>
                <mxCell id="28" value="&lt;br&gt;return ConcreteProduct();" style="shape=note2;boundedLbl=1;whiteSpace=wrap;html=1;size=25;verticalAlign=top;align=center;" vertex="1" parent="1">
                    <mxGeometry x="40" y="720" width="280" height="110" as="geometry"/>
                </mxCell>
            </root>
        </mxGraphModel>
    </diagram>
</mxfile>